<?xml version="1.0" encoding="UTF-8"?>
<svg id="Layer_1" data-name="Layer 1" xmlns="http://www.w3.org/2000/svg" viewBox="0 0 500 194.34">
  <path d="M78.89,1.1v192.41h-26.39l4.4-118.74h-2.47l-7.97,118.74h-14.02l-7.97-118.74h-2.47l4.4,118.74H0V1.1h26.39l11.54,118.19h3.03L52.5,1.1h26.39Z"/>
  <path d="M84.66,36.01h26.94v134.69h4.67V36.01h27.49v157.78h-22.81l-4.67-20.62s1.1,22.54-17.59,20.89c0,0-13.74-.82-14.02-28.04V36.01Z"/>
  <path d="M208.63,193.51h-26.94V59.1h-4.67v134.41h-27.49V36.01h22.54l4.67,20.62s-1.1-22.54,17.59-20.89c0,0,14.57.82,14.02,28.04l.27,129.74Z"/>
  <path d="M274.05,104.45h-27.49v-46.73h-5.5v113.52h5.5v-48.38h27.49v42.88s0,29.13-31.34,28.58c0,0-28.31-.28-28.31-31.89v-95.93c0-32.16,29.96-31.88,29.96-31.88,29.68,0,29.68,28.58,29.68,28.58v41.23Z"/>
  <path d="M338.1,193.24h-26.94V59.1h-4.67v134.41h-26.94V1.1h26.94v55.52c.28-3.3,4.4-20.62,17.04-20.34,0,0,15.12-.82,14.29,27.49l.27,129.46Z"/>
  <path d="M343.6,1.1h26.66v26.66h-26.66V1.1ZM343.6,36.01h26.66v157.5h-26.66V36.01Z"/>
  <path d="M408.19,122.87h27.49v42.88s.55,28.86-29.69,28.58c-1.1,0-29.96-.28-29.96-31.89v-95.65c0-18.42,11.54-31.89,29.96-31.89,6.32,0,29.69,1.92,29.69,28.59v41.23h-32.71v66.52h5.22v-48.38ZM408.19,90.99v-32.71h-5.22v32.71h5.22Z"/>
  <path d="M455.74,116c-6.87-9.34-14.57-17.32-14.57-35.18v-12.37c0-22.26,13.19-29.41,21.44-31.61,3.85-1.1,6.6-1.1,6.6-1.1,3.85,0,6.87.28,9.62,1.1,21.71,5.22,21.17,28.04,21.17,28.04v25.84h-26.94v-31.06h-5.22v23.37c0,5.49,1.37,7.42,10.17,18.96l5.77,7.42c6.6,8.52,16.22,21.99,16.22,36.83v14.57c0,22.27-12.92,29.41-21.17,31.61-3.85,1.1-6.87,1.1-6.87,1.1-3.57,0-6.6-.28-9.62-1.1-21.71-5.22-21.17-28.04-21.17-28.04v-25.84h27.21v31.06h5.22v-23.36c0-6.87-4.95-12.92-12.37-22.81l-5.5-7.42Z"/>
</svg>