<?xml version="1.0" encoding="UTF-8"?>
<svg id="Layer_1" data-name="Layer 1" xmlns="http://www.w3.org/2000/svg" viewBox="0 0 311.01 500">
  <defs>
    <style>
      .cls-1 {
        fill: #f4f4f6;
      }

      .cls-2 {
        fill: #032ca6;
      }

      .cls-3 {
        fill: #1d1d1b;
      }
    </style>
  </defs>
  <g>
    <path class="cls-3" d="M198.4,400.26v63.71h0v-64.06c0,.12,0,.23,0,.35Z"/>
    <path class="cls-3" d="M211.91,400.26v63.71h.01v-63.71h-.01Z"/>
    <rect class="cls-1" x="211.92" y="400.26" width="63.05" height="63.71"/>
  </g>
  <g>
    <g>
      <path class="cls-2" d="M198.41,399.91v64.06h0v-63.71c0-.12,0-.23,0-.35Z"/>
      <path class="cls-2" d="M211.92,400.26v63.71c0,.12,0,.23-.01.35v-64.06h.01Z"/>
    </g>
    <g>
      <path class="cls-2" d="M198.41,399.91v64.06h0v-63.71c0-.12,0-.23,0-.35Z"/>
      <path class="cls-2" d="M211.92,400.26v63.71c0,.12,0,.23-.01.35v-64.06h.01Z"/>
    </g>
    <g>
      <path class="cls-2" d="M198.41,399.91v64.06h0v-63.71c0-.12,0-.23,0-.35Z"/>
      <path class="cls-2" d="M211.92,400.26v63.71c0,.12,0,.23-.01.35v-64.06h.01Z"/>
      <path class="cls-2" d="M211.92,413.42v50.55c0,.12,0,.23-.01.35v-50.55c0-.12,0-.23.01-.35Z"/>
    </g>
    <g>
      <path class="cls-2" d="M211.91,400.26v64.06c.01-.12.01-.23.01-.35v-63.71h-.01ZM198.4,400.26v63.71h0v-64.06c0,.12,0,.23,0,.35Z"/>
      <path class="cls-2" d="M211.91,400.26v64.06c.01-.12.01-.23.01-.35v-63.71h-.01Z"/>
    </g>
    <g>
      <path class="cls-2" d="M211.91,400.26v64.06c.01-.12.01-.23.01-.35v-63.71h-.01ZM198.4,400.26v63.71h0v-64.06c0,.12,0,.23,0,.35Z"/>
      <path class="cls-2" d="M211.91,400.26v64.06c.01-.12.01-.23.01-.35v-63.71h-.01Z"/>
    </g>
    <g>
      <path class="cls-2" d="M211.91,400.26v64.06c.01-.12.01-.23.01-.35v-63.71h-.01ZM198.4,400.26v63.71h0v-64.06c0,.12,0,.23,0,.35Z"/>
      <path class="cls-2" d="M211.91,400.26v64.06c.01-.12.01-.23.01-.35v-63.71h-.01ZM198.4,400.26v63.71h0v-64.06c0,.12,0,.23,0,.35Z"/>
    </g>
  </g>
  <g>
    <path class="cls-2" d="M211.91,400.26v64.06c.01-.12.01-.23.01-.35v-63.71h-.01ZM198.4,400.26v63.71h0v-64.06c0,.12,0,.23,0,.35Z"/>
    <path class="cls-2" d="M211.91,400.26v64.06c.01-.12.01-.23.01-.35v-63.71h-.01ZM198.4,400.26v63.71h0v-64.06c0,.12,0,.23,0,.35Z"/>
    <path class="cls-2" d="M304.53,411.25c-1.11-1.83-2.65-3.38-4.49-4.49h-.01c-1.12-1.85-2.67-3.41-4.51-4.52-1.11-1.84-2.67-3.39-4.51-4.5-1.11-1.84-2.66-3.4-4.5-4.51-2.36-3.88-6.65-6.48-11.54-6.48h-40.53V36.04c0-4.89-2.6-9.17-6.48-11.53-1.11-1.84-2.67-3.4-4.51-4.51-1.11-1.84-2.66-3.39-4.5-4.5-1.11-1.84-2.67-3.4-4.51-4.51-1.11-1.84-2.66-3.39-4.5-4.5C207.58,2.6,203.3,0,198.41,0h-61.78c-6.96,0-12.77,5.28-13.45,12.2l-6.96,71.2-4.75-48.67c-.43-4.37-2.9-8.08-6.42-10.23-1.12-1.84-2.67-3.39-4.51-4.51-1.12-1.83-2.66-3.37-4.49-4.5-1.13-1.85-2.68-3.39-4.52-4.5-1.11-1.84-2.65-3.38-4.48-4.49C84.67,2.58,80.36,0,75.5,0H13.72C6.26,0,.21,6.05.21,13.52v450.45c0,4.89,2.6,9.17,6.48,11.53,1.11,1.84,2.67,3.4,4.51,4.51,1.11,1.84,2.66,3.39,4.5,4.5,1.11,1.84,2.66,3.39,4.5,4.51,1.12,1.84,2.67,3.39,4.51,4.5,2.36,3.88,6.64,6.48,11.53,6.48h61.78c2.52,0,4.97-.7,7.08-2,2.06,1.27,4.49,2,7.08,2h32.81c2.59,0,5.02-.73,7.08-2,2.11,1.3,4.56,2,7.08,2h61.78c2.46,0,4.76-.66,6.75-1.81,1.99,1.15,4.29,1.81,6.75,1.81h63.07c7.46,0,13.51-6.05,13.51-13.51v-63.71c0-4.89-2.6-9.17-6.48-11.53ZM198.41,463.97h-61.78l10.3-277.99h-5.8l-18.66,277.99h-32.82l-18.66-277.99h-5.79l10.3,277.99H13.72V13.52h61.78l.44,4.5.44,4.51,26.14,267.69h7.08l9.35-95.71,2.03-20.78,2.03-20.8v-.03l13.62-139.38h61.78v450.45ZM274.97,463.97h-63.05c0,.12,0,.23-.01.35v-64.06h63.06v63.71Z"/>
  </g>
  <g>
    <path class="cls-1" d="M198.4,400.26v63.71h0v-64.06c0,.12,0,.23,0,.35Z"/>
    <path class="cls-1" d="M198.41,13.52v386.39c0,.12,0,.23,0,.35v63.71h-61.77l10.3-277.99h-5.8l-18.66,277.99h-32.82l-18.66-277.99h-5.79l10.3,277.99H13.72V13.52h61.78l.44,4.5.44,4.51,26.14,267.69h7.08l9.35-95.71,2.03-20.78,2.03-20.8v-.03l13.62-139.38h61.78Z"/>
    <path class="cls-1" d="M211.91,400.26v63.71h.01v-63.71h-.01Z"/>
  </g>
</svg>