<?xml version="1.0" encoding="UTF-8"?>
<svg id="Layer_1" data-name="Layer 1" xmlns="http://www.w3.org/2000/svg" viewBox="0 0 500 213.31">
  <defs>
    <style>
      .cls-1 {
        fill: #f4f4f6;
      }

      .cls-2 {
        fill: #032ca6;
      }
    </style>
  </defs>
  <g>
    <path d="M92.41,41.97v.21c.13-.08.26-.14.4-.21h-.4Z"/>
    <path d="M330.46,45.63v.12s.05.01.07.03c-.02-.05-.04-.1-.07-.15Z"/>
    <path d="M425.86,137.79v.07s.09-.05.14-.07h-.14Z"/>
  </g>
  <path class="cls-2" d="M499.99,107.11v-24.05c.14-7.16-2.55-19.45-12.02-27.81-.84-.95-1.75-1.86-2.73-2.73-.89-1.01-1.85-1.98-2.9-2.9-.86-.97-1.79-1.91-2.8-2.8-.84-.94-1.74-1.85-2.71-2.71-4.06-4.61-9.74-8.46-17.55-10.39-3.22-.93-6.75-1.35-11.42-1.35-.65,0-4.08.07-8.66,1.37-4.67,1.25-12.8,4.45-18.9,12.26-.83-.93-1.7-1.79-2.62-2.59-7.4-8.43-18.67-11.81-28.91-11.81-3.52,0-6.88.41-10.03,1.21v-9.44c0-3.3-1.71-6.2-4.29-7.86-.72-1.13-1.68-2.08-2.8-2.8-.73-1.13-1.68-2.08-2.81-2.81-.72-1.12-1.67-2.08-2.8-2.8-.72-1.12-1.68-2.08-2.8-2.81-1.67-2.58-4.56-4.29-7.86-4.29h-24.92c-5.16,0-9.35,4.19-9.35,9.35v24.92c0,.42.03.83.09,1.23-.7-.4-1.39-.74-2.06-1.02v-11.11c0-3.3-1.71-6.2-4.29-7.86-.72-1.13-1.68-2.08-2.8-2.8-.72-1.13-1.68-2.08-2.8-2.81-.73-1.12-1.68-2.08-2.81-2.8-.72-1.12-1.68-2.08-2.8-2.81-1.67-2.58-4.56-4.29-7.86-4.29h-25.18c-5.16,0-9.34,4.19-9.34,9.35v29.44c-5.69-4.48-13.38-7.45-23.45-7.45h-.11c-7.87,0-20.01,3.04-28.3,12.43-.3-.28-.6-.55-.9-.8h-.01c-.9-1.08-1.83-1.99-2.77-2.78-5.57-6.59-12.39-7.63-13.93-7.78-.88-.08-1.76-.12-2.61-.12-4.55,0-8.69,1.12-12.2,3.29-1.73-1.83-4.17-2.95-6.82-2.95h-21.07c-.94,0-1.84.14-2.69.4,0,0,0,0-.02,0-.86-.26-1.74-.4-2.68-.4h-25.69c-.75,0-1.49.09-2.19.25-.7-.16-1.43-.25-2.18-.25h-7.21v-9.26c0-3.3-1.71-6.2-4.29-7.86-.72-1.13-1.68-2.08-2.8-2.8-.72-1.12-1.67-2.07-2.79-2.8-.73-1.13-1.69-2.09-2.82-2.81-.72-1.12-1.68-2.08-2.8-2.81-1.67-2.58-4.56-4.29-7.86-4.29h-24.66c-4.81,0-8.84,3.66-9.3,8.44l-.25,2.56c-.43-.41-.89-.78-1.39-1.1-.72-1.13-1.68-2.09-2.81-2.81-.72-1.12-1.68-2.08-2.8-2.8-1.67-2.59-4.59-4.29-7.86-4.29H9.34C4.18,0,0,4.19,0,9.35v179.82c0,3.3,1.71,6.2,4.29,7.86.72,1.12,1.68,2.08,2.8,2.8.72,1.13,1.68,2.08,2.8,2.81.73,1.12,1.68,2.08,2.81,2.8.72,1.12,1.68,2.08,2.8,2.8,1.66,2.58,4.56,4.29,7.86,4.29h24.66c.97,0,1.92-.15,2.82-.43.9.28,1.85.43,2.83.43h13.1c.99,0,1.94-.15,2.83-.43.91.28,1.86.43,2.83.43h24.66c3.13,0,5.91-1.54,7.6-3.91,4.53,3.59,8.92,4.26,10.07,4.39.88.08,1.76.12,2.61.12,4.56,0,8.69-1.13,12.21-3.29,1.72,1.83,4.16,2.95,6.81,2.95h21.33c1.09,0,2.13-.19,3.1-.54h0c.73.18,1.49.28,2.28.28h25.69c.75,0,1.48-.09,2.18-.25.7.16,1.43.25,2.19.25h25.17c2.48,0,4.86-.98,6.62-2.74,1.32-1.33,2.2-3.01,2.56-4.82,1.62,1.31,3.25,2.39,4.83,3.29,8.48,4.82,16.83,5.03,17.68,5.04.33.01.65.01.98.01,10.02,0,17.74-2.81,23.51-7.1.63.79,1.39,1.48,2.24,2.03,1.66,2.58,4.56,4.29,7.86,4.29h25.18c.94,0,1.86-.14,2.72-.4.53.1,1.08.14,1.64.14h25.18c.72,0,1.42-.08,2.11-.24h0c.95.33,1.96.5,3.02.5h24.92c4.61,0,8.43-3.33,9.19-7.72,7.84,6.32,17.51,8.49,24.11,8.49h.49c11.02,0,19.92-3.38,26.47-10.06,1.42-1.44,2.64-2.96,3.69-4.51.68.73,1.41,1.44,2.18,2.12,4.07,4.6,9.77,8.45,17.6,10.36,3.4.92,6.9,1.32,11.31,1.32.69,0,4.33-.06,8.91-1.36,8.08-2.17,26.64-10.26,26.64-38.55v-13.62c0-15.99-9.14-29.85-17.12-40.15l-1.86-2.39h9.64c5.16,0,9.34-4.19,9.34-9.35ZM83.07,189.17h-24.66l4.11-110.98h-2.31l-7.45,110.98h-13.1l-7.45-110.98h-2.32l4.11,110.98H9.34V9.35h24.66l.18,1.87.28,2.8,10.33,105.79h2.83l8.34-85.39,1.25-12.75.64-6.54v-.02l.56-5.76h24.66v179.82ZM143.7,189.43h-21.32l-4.37-19.27s.83,16.92-11.58,19.32c-.86.17-1.8.26-2.8.28-.65.01-1.34-.02-2.06-.08,0,0-.28-.02-.75-.13-.64-.14-1.64-.46-2.8-1.13-.87-.5-1.83-1.2-2.8-2.19-.58-.59-1.16-1.28-1.72-2.09-.38-.53-.74-1.1-1.09-1.74-.73-1.32-1.41-2.89-1.99-4.74-1.13-3.57-1.89-8.19-1.95-14.18V41.97h3.94v.21c.13-.08.26-.14.4-.21h20.83v125.88h4.37V41.97h25.69v147.46ZM179.15,189.17V63.55h-4.37v125.62h-25.69V41.97h21.07l.42,1.87.64,2.81,3.31,14.59s-.43-8.79,3.97-14.59c.8-1.06,1.77-2.02,2.92-2.81.7-.48,1.47-.89,2.32-1.23,1.86-.75,4.11-1.11,6.8-.92.14.01.29.02.43.03,0,0,2.37.13,5.1,2.14.94.69,1.91,1.6,2.85,2.8,1.52,1.95,2.94,4.66,3.9,8.45.62,2.44,1.05,5.33,1.2,8.75h0c.06,1.29.08,2.63.05,4.06l.22,105.69v5.64s.03,9.92.03,9.92h-25.17ZM265.47,105.94h-25.69v-43.67h-5.14v106.09h5.14v-45.21h25.69v40.08s0,3.6-1.41,8.16c-.62,2.01-1.51,4.2-2.8,6.35-3.83,6.4-11.13,12.44-25.08,12.2,0,0-3.8-.04-8.52-1.69-.91-.32-1.85-.7-2.81-1.15-.92-.43-1.86-.94-2.8-1.51-.94-.59-1.88-1.26-2.8-2.02-.97-.8-1.91-1.7-2.8-2.72h0c-.67-.77-1.3-1.6-1.9-2.49-.31-.47-.62-.96-.91-1.48-.78-1.35-1.46-2.85-2.03-4.5h0c-1.19-3.39-1.89-7.43-1.89-12.24v-89.65c0-.55.01-1.08.03-1.61,0-.03,0-.07.01-.1.18-5.14,1.22-9.35,2.8-12.78.45-.97.93-1.87,1.46-2.72.34-.56.7-1.09,1.07-1.6.23-.31.46-.61.69-.9.05-.06.1-.12.15-.18.04-.06.09-.11.13-.17,8.27-9.86,21.66-9.74,21.66-9.74h.27c4.37.03,8.03.72,11.12,1.87h.01c2.09.77,3.91,1.76,5.5,2.88,2.94,2.08,5.08,4.65,6.64,7.28,1.29,2.16,2.18,4.38,2.8,6.41,1.41,4.61,1.41,8.28,1.41,8.28v38.53ZM300.15,188.91V63.55h-4.37v125.62h-25.18V9.35h25.18v51.89c.26-3.08,4.11-19.27,15.93-19.01,0,0,2.1-.11,4.63,1.26.54.29,1.1.66,1.67,1.1.38.3.75.63,1.13,1,.52.53,1.04,1.13,1.54,1.83.14.2.29.42.43.64,1.11,1.71,2.1,3.94,2.81,6.81.84,3.37,1.31,7.64,1.15,13.05l.25,120.99h-25.17ZM355.38,189.17h-24.92V45.75s.05.01.07.03c-.02-.05-.04-.1-.07-.15v-3.66h24.92v147.2ZM355.38,34.27h-24.92V9.35h24.92v24.92ZM415.54,170.46c-.29,1.18-.68,2.45-1.2,3.75h0c-2.9,7.44-9.7,15.88-25.57,15.73-.4,0-4.82-.04-10.03-1.89-.92-.32-1.85-.7-2.8-1.15-.94-.44-1.88-.94-2.81-1.51-.95-.59-1.89-1.25-2.8-2.01-.97-.79-1.91-1.69-2.8-2.69-.68-.77-1.32-1.6-1.93-2.5h0c-.31-.46-.6-.93-.88-1.42-.79-1.36-1.49-2.87-2.07-4.53-1.18-3.36-1.88-7.35-1.88-12.1v-89.4c0-.39.01-.78.02-1.17v-.03c.17-5.68,1.53-10.82,3.93-15.12.81-1.47,1.75-2.85,2.81-4.11.85-1.04,1.79-2,2.8-2.87.74-.66,1.52-1.27,2.33-1.81,1.03-.72,2.13-1.35,3.28-1.9.89-.44,1.83-.83,2.8-1.16,2.86-1,6.01-1.56,9.43-1.6,0,0,0,0,.01,0,.01-.01.02-.01.03,0,.18-.01.37-.01.56-.01,2.2,0,6.63.25,11.32,1.86,2.02.69,4.09,1.64,6.04,2.93,3.51,2.32,6.66,5.73,8.56,10.76h0c.77,2.07,1.33,4.41,1.61,7.05.01.01.01.02,0,.03.15,1.28.22,2.64.22,4.08v38.54h-30.57v62.16h4.88v-45.21h25.69v40.08s.06,3.12-.98,7.23ZM476.63,68.95v24.14h-25.18v-29.02h-4.88v21.83c0,5.14,1.29,6.94,9.51,17.73l5.39,6.93c6.17,7.97,15.16,20.55,15.16,34.43v13.61c0,20.81-12.07,27.49-19.78,29.54-3.6,1.03-6.42,1.03-6.42,1.03-3.34,0-6.17-.26-8.99-1.03-1.03-.25-2.01-.54-2.94-.88-1.15-.39-2.21-.86-3.21-1.37-1.12-.57-2.15-1.21-3.09-1.89-1.08-.78-2.04-1.62-2.91-2.5-1.02-1.04-1.9-2.13-2.66-3.24-.09-.13-.18-.26-.26-.39-.84-1.28-1.53-2.58-2.1-3.87-.28-.63-.53-1.27-.75-1.89-1.97-5.48-1.86-10.17-1.86-10.17v-24.15h4.2v.07s.09-.05.14-.07h21.09v29.03h4.88v-21.83c0-6.43-4.63-12.08-11.56-21.33l-.83-1.11-2.64-3.56-1.67-2.26c-.34-.47-.69-.93-1.03-1.39-.93-1.23-1.86-2.45-2.77-3.68-.96-1.29-1.91-2.61-2.8-3.97-.7-1.06-1.37-2.15-2-3.29-.28-.49-.55-1-.81-1.53-.88-1.75-1.67-3.63-2.3-5.68-1.19-3.75-1.9-8.09-1.9-13.34v-11.56c0-.73.02-1.44.05-2.13.22-5.35,1.3-9.69,2.9-13.22.36-.79.74-1.53,1.15-2.24.24-.43.5-.85.76-1.25.1-.16.21-.32.32-.47.03-.05.06-.1.1-.15.03-.05.07-.1.1-.15,4.27-6.04,10.22-8.76,14.65-9.94,3.6-1.02,6.17-1.02,6.17-1.02.47,0,.92,0,1.36.01,2.96.06,5.39.34,7.63,1.01,1.01.24,1.97.53,2.87.85,2.21.77,4.13,1.76,5.8,2.9,11.46,7.79,11.11,22.46,11.11,22.46Z"/>
  <path class="cls-1" d="M476.63,68.95v24.14h-25.18v-29.02h-4.88v21.83c0,5.14,1.29,6.94,9.51,17.73l5.39,6.93c6.17,7.97,15.16,20.55,15.16,34.43v13.61c0,20.81-12.07,27.49-19.78,29.54-3.6,1.03-6.42,1.03-6.42,1.03-3.34,0-6.17-.26-8.99-1.03-1.03-.25-2.01-.54-2.94-.88-1.15-.39-2.21-.86-3.21-1.37-1.12-.57-2.15-1.21-3.09-1.89-1.08-.78-2.04-1.62-2.91-2.5-1.02-1.04-1.9-2.13-2.66-3.24-.09-.13-.18-.26-.26-.39-.84-1.28-1.53-2.58-2.1-3.87-.28-.63-.53-1.27-.75-1.89-1.97-5.48-1.86-10.17-1.86-10.17v-24.15h4.2v.07s.09-.05.14-.07h21.09v29.03h4.88v-21.83c0-6.43-4.63-12.08-11.56-21.33l-.83-1.11-2.64-3.56-1.67-2.26c-.34-.47-.69-.93-1.03-1.39-.93-1.23-1.86-2.45-2.77-3.68-.96-1.29-1.91-2.61-2.8-3.97-.7-1.06-1.37-2.15-2-3.29-.28-.49-.55-1-.81-1.53-.88-1.75-1.67-3.63-2.3-5.68-1.19-3.75-1.9-8.09-1.9-13.34v-11.56c0-.73.02-1.44.05-2.13.22-5.35,1.3-9.69,2.9-13.22.36-.79.74-1.53,1.15-2.24.24-.43.5-.85.76-1.25.1-.16.21-.32.32-.47.03-.05.06-.1.1-.15.03-.05.07-.1.1-.15,4.27-6.04,10.22-8.76,14.65-9.94,3.6-1.02,6.17-1.02,6.17-1.02.47,0,.92,0,1.36.01,2.96.06,5.39.34,7.63,1.01,1.01.24,1.97.53,2.87.85,2.21.77,4.13,1.76,5.8,2.9,11.46,7.79,11.11,22.46,11.11,22.46Z"/>
  <path class="cls-1" d="M416.52,163.23v-40.08h-25.69v45.21h-4.88v-62.16h30.57v-38.54c0-1.44-.07-2.8-.22-4.08.01-.01.01-.02,0-.03-.28-2.64-.84-4.98-1.61-7.04h0c-1.9-5.04-5.05-8.45-8.56-10.77-1.95-1.29-4.02-2.24-6.04-2.93-4.69-1.61-9.12-1.86-11.32-1.86-.19,0-.38,0-.56.01,0-.01-.02-.01-.03,0-.01,0-.01,0-.01,0-3.42.04-6.57.6-9.43,1.6-.97.33-1.91.72-2.8,1.16-1.15.55-2.25,1.18-3.28,1.9-.81.54-1.59,1.15-2.33,1.81-1.01.87-1.95,1.83-2.8,2.87-1.06,1.26-2,2.64-2.81,4.11-2.4,4.3-3.76,9.44-3.93,15.12v.03c-.01.39-.02.78-.02,1.17v89.4c0,4.75.7,8.74,1.88,12.1.58,1.66,1.28,3.17,2.07,4.53.28.49.57.96.88,1.41h0c.61.91,1.25,1.74,1.93,2.51.89,1,1.83,1.9,2.8,2.69.91.76,1.85,1.42,2.8,2.01.93.57,1.87,1.07,2.81,1.51.95.45,1.88.83,2.8,1.15,5.21,1.85,9.63,1.89,10.03,1.89,15.87.15,22.67-8.29,25.57-15.72h0c.52-1.31.91-2.58,1.2-3.76,1.04-4.11.98-7.23.98-7.23ZM385.95,62.78h4.88v30.57h-4.88v-30.57Z"/>
  <rect class="cls-1" x="330.46" y="9.35" width="24.92" height="24.92"/>
  <path class="cls-1" d="M355.38,41.97v147.2h-24.92V45.75s.05.01.07.03c-.02-.05-.04-.1-.07-.15v-3.66h24.92Z"/>
  <path class="cls-1" d="M300.15,188.91V63.55h-4.37v125.62h-25.18V9.35h25.18v51.89c.26-3.08,4.11-19.27,15.93-19.01,0,0,2.1-.11,4.63,1.26.54.29,1.1.66,1.67,1.1.38.3.75.63,1.13,1,.52.53,1.04,1.13,1.54,1.83.14.2.29.42.43.64,1.11,1.71,2.1,3.94,2.81,6.81.84,3.37,1.31,7.64,1.15,13.05l.25,120.99h-25.17Z"/>
  <path class="cls-1" d="M239.78,105.94v-43.67h-5.14v106.09h5.14v-45.21h25.69v40.08s0,3.6-1.41,8.16c-.62,2.01-1.51,4.2-2.8,6.35-3.83,6.4-11.13,12.44-25.08,12.2,0,0-3.8-.04-8.52-1.69-.91-.32-1.85-.7-2.81-1.15-.92-.43-1.86-.94-2.8-1.51-.94-.59-1.88-1.26-2.8-2.02-.97-.8-1.91-1.7-2.8-2.72h0c-.67-.77-1.3-1.6-1.9-2.49-.31-.47-.62-.96-.91-1.48-.78-1.35-1.46-2.85-2.03-4.5h0c-1.19-3.39-1.89-7.43-1.89-12.24v-89.65c0-.55.01-1.08.03-1.61,0-.03,0-.07.01-.1.18-5.14,1.22-9.35,2.8-12.78.45-.97.93-1.87,1.46-2.72.34-.56.7-1.09,1.07-1.6.23-.31.46-.61.69-.9.05-.06.1-.12.15-.18.04-.06.09-.11.13-.17,8.27-9.86,21.66-9.74,21.66-9.74h.27c4.37.03,8.03.72,11.12,1.87h.01c2.09.77,3.91,1.76,5.5,2.88,2.94,2.08,5.08,4.65,6.64,7.28,1.29,2.16,2.18,4.38,2.8,6.41,1.41,4.61,1.41,8.28,1.41,8.28v38.53h-25.69Z"/>
  <path class="cls-1" d="M179.15,189.17V63.55h-4.37v125.62h-25.69V41.97h21.07l.42,1.87.64,2.81,3.31,14.59s-.43-8.79,3.97-14.59c.8-1.06,1.77-2.02,2.92-2.81.7-.48,1.47-.89,2.32-1.23,1.86-.75,4.11-1.11,6.8-.92.14.01.29.02.43.03,0,0,2.37.13,5.1,2.14.94.69,1.91,1.6,2.85,2.8,1.52,1.95,2.94,4.66,3.9,8.45.62,2.44,1.05,5.33,1.2,8.75h0c.06,1.29.08,2.63.05,4.06l.22,105.69v5.64s.03,9.92.03,9.92h-25.17Z"/>
  <path class="cls-1" d="M143.7,41.97v147.46h-21.32l-4.37-19.27s.83,16.92-11.58,19.32c-.86.17-1.8.26-2.8.28-.65.01-1.34-.02-2.06-.08,0,0-.28-.02-.75-.13-.64-.14-1.64-.46-2.8-1.13-.87-.5-1.83-1.2-2.8-2.19-.58-.59-1.16-1.28-1.72-2.09-.38-.53-.74-1.1-1.09-1.74-.73-1.32-1.41-2.89-1.99-4.74-1.13-3.57-1.89-8.19-1.95-14.18V41.97h3.94v.21c.13-.08.26-.14.4-.21h20.83v125.88h4.37V41.97h25.69Z"/>
  <polygon class="cls-1" points="83.07 9.35 83.07 189.17 58.41 189.17 62.52 78.19 60.21 78.19 52.76 189.17 39.66 189.17 32.21 78.19 29.89 78.19 34 189.17 9.34 189.17 9.34 9.35 34 9.35 34.18 11.22 34.46 14.02 44.79 119.81 47.62 119.81 55.96 34.42 57.21 21.67 57.85 15.13 57.85 15.11 58.41 9.35 83.07 9.35"/>
  <rect class="cls-2" x="385.95" y="62.78" width="4.88" height="30.57"/>
</svg>